<?xml version="1.0" encoding="utf-8"?>
<!-- Generator: Adobe Illustrator 21.1.0, SVG Export Plug-In . SVG Version: 6.00 Build 0)  -->
<svg version="1.1" id="Layer_1" xmlns="http://www.w3.org/2000/svg" xmlns:xlink="http://www.w3.org/1999/xlink" x="0px" y="0px"
	 viewBox="0 0 972.4 305.9" enable-background="new 0 0 972.4 305.9" xml:space="preserve">
<path fill="#1C1C1F" d="M-40.2,460.6L-40.2,460.6L-40.2,460.6C-40.2,460.6-40.2,460.6-40.2,460.6"/>
<path fill="#FFFFFF" d="M971.4,220c-3-12.7-14.4-22.5-30.7-26.3c-12.9-3-28.3-2.9-41.7-1.5c2.1-6.3,4.2-12.7,6.4-19.3
	c5-15.1,10.1-30.6,15.4-45.3c0.1-0.3,0.3-0.6,0.4-0.9c1.1-2.5,3.6-8.2,0.9-15c-1.9-4.5-5.5-7.9-10.8-10c-9.7-4-18.6-4.4-26.3-1.1
	c-8.1,3.5-12.9,10-16.3,16.8c-3.3-7.7-10.8-15.4-26.5-18.6c-7.5-1.5-13.5-0.1-17.9,4.2c-0.4,0.4-0.8,0.8-1.1,1.2
	c-1.4-1.7-2.7-3.1-3.8-4.2c-5.2-5.2-13.2-11.3-22.3-11.3c0,0,0,0-0.1,0c-1.3,0-2.6,0.2-3.9,0.5c-5.5,1.5-9.4,5.1-12.2,9.2
	c-5.5-0.9-11.8-1-18.1,1c-6.9,2.2-12.4,6.7-16.8,12c-2.6-4.8-5.8-8.6-7.6-10.6c-3.7-4-8.9-8.4-15.2-10.7c1.4-3.8,2.8-7.5,4-11
	c5.7-16.5,7.8-29.1,6.5-37.4c-2.2-13-13.2-23.5-30.2-28.9c-0.3-0.1-0.5-0.2-0.8-0.2c-5-1.3-12.3-0.9-17.6,4.3
	c-4.4,4.2-6.1,10.3-4.9,16.9c1.7,11.8-11.1,45.4-20.4,69.9c-0.3,0.9-0.7,1.8-1,2.7c-0.8-0.5-1.7-0.9-2.7-1.4
	c-4.7-2.2-9.8-3.6-13.1-4.3c-1.1-0.2-2.3-0.3-3.5-0.3c-1.5,0-2.9,0.1-4.3,0.3c2.1-6.7-0.5-13.2-4.8-17.3
	c-11.7-11.1-31.5-16.6-45.2-4.9c-2.9,2.5-5.4,5.6-7.5,9.2c-4.1-2.2-8.9-3.6-14.2-3.9c-10.1-0.6-20.6,4.6-26.6,13.1
	c-1,0.1-1.9,0.2-2.9,0.3c-8.1,1.4-15.5,6.2-22.4,14.4c-0.9-1.4-2-2.7-3.3-3.9c-12.2-10.6-30.7-16.2-44.7-5c-2.1,1.7-4.4,3.9-6.9,6.7
	c-1.6-2.1-3.6-3.9-5.8-5.6c-4.8-3.5-10.9-5.9-18.6-7.4c-5.8-1.2-11.5,0.3-15.6,3.9c-1.3,1.2-2.4,2.5-3.3,4
	c-22.7-16.7-39.5-3.9-46.2,3.1c-7.3-11.2-21.2-13.9-26.8-14.9c-5.9-1.2-11.6,0.3-15.7,3.9c-1.7,1.6-3.1,3.4-4,5.5
	c-2.8-3-6.2-5.8-10.2-8.3l-0.7-0.4c-2.1-1.4-5.4-3.4-9.6-4.3c-7.1-1.6-14.1,0.7-19.1,6.3c-1.1,1.2-2.1,2.5-3,3.7
	c-6.4-1.9-15.1-3.3-23.4-0.8c-14.1,4.3-26.1,18.9-35.8,43.4c-0.3,0.9-0.7,1.7-1,2.6c-4.1-3.5-8.7-6.1-13.4-8
	c21.2-20.5,45.4-50.5,44.1-76.8c0-0.2,0-0.5-0.1-0.7c-4.4-45.4-68.8-60-111.2-58.8c-23.7-0.2-51.9,6.1-75.4,16.6
	C25.7,33.2,10.7,54.6,4.6,69.5c-6.5,15.9-6.1,31.8,1,43.7C10,120.7,19.1,130,37.1,132c0.2,0,0.4,0,0.6,0.1
	c14.1,0.9,26.8-5,33.3-15.6c4-6.5,4.1-14.2,0.3-20.1c-3-4.7-8.1-7.5-13.8-7.7c0.4-1,0.9-2.2,1.5-3.3c0,0,0,0,0,0
	c12.5-22,42.8-35.1,69-38.1c-0.1,1.1-0.2,2.3-0.2,3.6l0,0.2c0,0.3,0,0.6,0,0.8c0.3,3.6-0.4,8.6-2,15.1
	c-3.3,13.3-10.6,30.9-18.3,49.5c-3.9,9.4-7.9,19-11.6,28.6c-0.5,1.3-1.1,2.8-1.7,4.4c-3.8,9.7-9.7,24.3-12.4,38.6
	c-1,5.4-2.6,13.5-1.6,21.8c-4.5,2-8.3,5.2-11.2,9.6c-5.8,8.8-6.9,21.3-2.8,30.9c6.5,15.3,22.4,24.7,41.8,24.7c0.2,0,0.4,0,0.7,0
	c24-0.3,55.2-17.7,76.5-33.9c12.7-9.7,23.6-20.2,31.5-30.3c1.7,2,3.6,3.8,5.8,5.5c7.2,5.5,16.4,8.7,25.4,8.7c0,0,0,0,0.1,0
	c7.3,0,14.9-2.9,22.6-8.5c4.4,3.5,9.9,5.7,16.1,6.3c8.4,0.8,16.9-2,25.6-8.3c5.8,4.6,13.5,8.4,20.6,8.3c6.5-0.1,12.4-3.1,16.2-8.3
	l0,0c1.3-1.7,2.3-3.7,3.3-5.7c0.2-0.4,0.5-0.9,0.8-1.5c0.2,0.4,0.4,0.8,0.7,1.1c3.6,5.9,11.1,13.2,25.7,14.4c0.4,0,0.7,0,1.1,0
	c0.1,0,0.1,0,0.2,0c7.3,0,14.8-2.7,22.5-7.9c6.3,4.9,13.9,7.9,19.9,7.8c6.5-0.1,12.4-3.1,16.2-8.3l-0.1,0c1.3-1.7,2.3-3.6,3.4-5.6
	c0.2-0.4,0.5-0.9,0.8-1.4c0.4,0.7,0.8,1.4,1.3,2.1c3.9,6,11.9,13.2,27.6,13.5c7.8,0.1,15.8-3,23.9-9.3c6.5,6.4,15.1,10.3,25.1,11.3
	c0.4,0,0.8,0.1,1.2,0.1c13.3,0.3,29.7-4.3,44.8-12.8c5.1-2.8,12.4-7.4,19.3-13.6c1.4,4.4,3.7,8.6,6.7,12.3c6.6,8.2,16.1,13,26,13.2
	c12.2,0.2,22.9-5.1,31.6-12.2c11.6,10.6,29.6,15.2,44.3,10.1c12-4.3,21-13.7,27.7-22.2c1,2.3,2.3,4.7,4.1,6.9
	c7.3,9.7,20.1,16.4,33.4,17.5c10,0.9,17-2.6,23.4-6.2c6.2-3.5,12.2-8.7,17.7-15c0.8,2,1.9,3.6,3.2,5.4c3.3,4.5,8.8,9.2,15.1,12.2
	c-4.7,3.3-9.4,7.1-13.9,11.2c-17,15.5-25.6,31.7-24.9,46.9c0,1,0.2,2,0.4,2.9c3.8,15.2,20.7,24.3,35.4,24.3c1.4,0,2.8-0.1,4.2-0.3
	c0.4-0.1,0.8-0.1,1.3-0.2c24.1-5.2,44.1-35.1,57.4-61.1c6.9-2.4,17.2-3.1,27.5-1.8c12.6,1.7,21.5,5.8,25,9.3c3.5,5.6,9.4,9,15.6,8.8
	c7.1-0.2,13.4-3.7,17.9-9.8C972.4,241.8,973.6,228.6,971.4,220z M180.4,55.9c5.5,2.9,9.2,6.3,9.7,9.8c0,2.6-1.9,8.5-7.8,17.8
	c0.8-4.1,1.3-8.2,1.3-12.1C183.7,66.1,182.6,60.8,180.4,55.9z M142.2,172.2c0.7,0,1.4,0,2.2,0c6.1-0.1,13.7-0.3,20.3,0.5
	c6,0.7,8.7,1.8,9.8,2.4c-0.7,6-9.1,18.5-26.3,32.4c-5.6,4.5-11.4,8.6-17.1,12.1C130.8,207.5,134.7,191.3,142.2,172.2z"/>
<path fill-rule="evenodd" clip-rule="evenodd" d="M46.1,78c17-30,59.3-46.4,93.2-46.4c21.8,0,63.7,8.8,65.9,33
	c0.7,15-17.7,38.4-25.9,48.3c-11.5,13.8-26.9,26.4-43,35.4c9.3-18.4,32.4-53.4,32.5-77c0-12.8-11.5-25-23.8-24.1
	c-2.1,0.2-2,2-1.9,3.6c0.4,5.6-0.5,12.2-2.4,19.7c-5.3,21.6-19.5,51.3-30.5,79.9c-3.3,8.6-10.5,25.2-13.4,40.4
	c-1.8,9.3-3.7,20.9,3.8,28.3c3.3,3.3,8.2,5.1,13,5.8c3.1,0.3,2.7-1.4,2.6-4.1c-0.6-19.7,7.4-44,16.7-65.1c0.7,0.7,1.6,1.3,2.7,1.3
	c13.8,0.6,55.9-4.7,54,18.9c-2.1,25.7-54.9,65.7-83.6,70.1c-2.3,0.3-11.6,2.1-11-2.1c0.8-4.9,8-7.8,12.1-9.3
	c0.3-0.1,0.6-0.5,0.4-0.9c-1.7-5.6-10-11.2-17.2-11.1c-10.2,0.1-13.4,14.1-10.1,21.8c4.7,11.1,16.6,15.7,28.4,15.5
	c35.3-0.4,108.6-53.1,108.5-86.3c-0.1-23-28.3-28.8-45.8-28.1c0,0-1,0.2,0.5-0.8c19.9-14.3,63.7-55.9,62.3-84.6
	c-3.4-34.9-61.8-46.3-96.1-45.2C96.3,14.7,34.4,36.2,18.5,75.2c-7.6,18.8-3.6,39.3,20.3,41.9c7.9,0.5,15.7-2.3,19.5-8.5
	c1.3-2.1,1.5-5.4-1.9-4.9C38.1,106,39.8,88.9,46.1,78 M526.5,165.8c0,0-0.8,0.6-0.8-0.1c1.8-10.3,13.6-38.6,27.6-38.6
	c3.4,0.2,2.8,3,1.7,6.7C550.7,146.9,538,159.2,526.5,165.8z M783.5,129.6L783.5,129.6c-2.8,9.1,0,22.7,6.4,31.1
	c-1.7,4.8-13,23.5-21.3,30c-1.7,1.4-6.3,4.8-8,3.6c-8.4-5.5,4.3-42.7,14.1-58C775.4,134.7,781.3,126.9,783.5,129.6z M281.8,128.5
	c-3.8,13.5-6,29.3-7.3,38.1c-8.1,12.7-21.2,29.9-26.1,27.6c-1.8-0.8-1.6-5.8-1.5-7.8c0.9-13,10.5-45.9,23.4-55.9
	C273.5,128.2,278.3,126.8,281.8,128.5z M816,272c1.6-3.6,7.4-15.1,26.3-29.4c0,0-14.5,25.6-23.6,31.2C816.7,275,814.5,275.4,816,272
	z M723.9,168.1c0.4-0.8,0.7-1.7,1.1-2.5c0.4-1,0.8-2.2,1.2-3.4c5.7-1.3,10.3-3.4,14.2-6.1c-1.9,6-3.3,11.3-3.9,15.2
	c-1.3,8.9-3.2,18.7,2.5,26.2c4.9,6.5,14.1,10.9,22.7,11.6c5.8,0.5,9.7-1.5,14.6-4.3c12.9-7.4,23.9-23.2,30.4-39.3
	c0.3-0.7,0.6-1.5,0.9-2.4c6.9-1.1,12.1-3.7,16.3-7.2c-1.6,3.7-3.1,7.5-4.5,11.4c-3.5,9.2-6.2,19.1-4.8,27c0.4,2.3,0.9,3.1,2.2,5
	c3.2,4.5,10.9,9.5,16.6,9.5c13.8,0,25.5-15,33-24.9c-3.8,10-9.4,24.7-14,34.1l-0.8,1.5c-19.7,8-56.8,34.4-55.6,58.4
	c2.2,8.7,15,13.8,23.1,12.8c21.5-4.6,41.9-42.3,49.5-57.9c20.1-11.4,62.8-6,75.9,10.2c0,0,1.1,2.5,2.7,2.5c8.5-0.3,11.5-14.7,9.5-22
	c-1.7-7.7-9.9-13-19.5-15.3c-19.5-4.6-47-0.7-58.9,2.8c0,0-1.9,0.3-1.9,0.3c9.8-26.7,19.6-59.5,30.4-89.1c1.4-3.6,3-5.1-1.2-6.7
	c-20.4-8.4-23.7,9-29.5,22.8c-4.8,11.3-10.7,24.6-18.1,35.1c-2.9,4-13.9,16.8-17.6,18.1c-3.4,1.2-2.4-3.7-2.2-5.7
	c2-14.5,15.3-37.8,17.9-53.3c1-9.1-2.5-16.2-16.9-19.2c-1.6-0.3-5.3-1-4.8,1.8c0.6,6.2-0.2,12.1-1.6,17.7
	c-3.3,6.7-14.8,15.4-19.5,14.1c2.5-8.4,4.3-17.5,3.1-24.8c-1.1-6.3-12.8-18.6-19.3-18.6c-3.7,1-6.5,8.3-8.6,12.7
	c-6.1-2.9-14.4-4.8-21-2.7c-7.8,2.5-13.8,12.2-17.6,19.1c-5,9.1-13.3,12.1-18.1,13.2c2.2-7.6,3.7-15.5,3-22.2
	c-0.8-7.2-12.1-20.1-19.5-20.1c-12.5,3.7-19.7,41.9-8.4,55.9c-1.4,4.2-4.9,12.5-10,19.4c-2.8,3.7-11.8,14.9-16.7,14.9
	c-6.9,0-1.1-28.3,0.4-32.9c7.7-28.8,23.9-61.3,32.6-86.7c2.5-7.2,7.1-22.5,5.9-30.1c-1.5-9.1-11.8-14.5-19.9-17.1c0,0-5.1-1.3-3.9,4
	c4.1,24.9-29.1,90.9-38.6,128.6c-9,17.9-21.9,33.2-32.9,32.8c-9-0.3,15.7-43.6,25.4-56.2c2.1-3.1,7.2-9.9,6.9-12.5
	c0.1-3.7-10.6-7.4-15.7-8.4c-7.4,0.2-12.2,1.6-19.1,2.4c-2.3,0.3-10.2,1.7-10.4-1.9c-0.2-3.8,6.3-14.3,8.9-17.6
	c1-1.3,2.6-2.4,0.7-4.2c-6.8-6.4-18-10.4-25-4.4c-9.2,7.9-13.2,30.1-3.1,39.1c1.1,1.1-8.2,11-8.7,12.2c-0.8,1.8,1.1,3.4,3.6,4.5
	c9.6,4.2,19.4-3.2,23.4-11.4c1.8-0.4,14.3-3,14.9-2.2c0.3,0.4-0.7,1.5-1.1,2.1c-10.5,16.6-19.2,28.9-23.9,48.8
	c-2.4,13.1,7.6,25.7,19.5,25.9c12.9,0.3,24.7-9.4,34.2-21.8c0.4,2.6,1.1,4.9,2.1,7c5.7,11.3,22.5,17.8,34.3,13.6
	c8.9-3.1,16.3-11.1,22.8-19.8C716.5,183.5,720.5,176.3,723.9,168.1L723.9,168.1z M406.8,195c0.3,5.8,11.1,12.8,16.3,12.7
	c1.3,0,3-0.4,4.3-2.1c0.4,0.4,20.4-41,40-59.3c0,0,0.3-0.4,0.5-0.3c0.1,0.1-0.2,0.4-0.6,1.6c-5.4,14.4-28.4,59.8,5.4,60.3
	c8.9,0.2,18.9-8.8,27.2-19.3c0.4,2.9,1.2,5.7,2.5,8.2c3.2,6.2,9.4,12,20.6,13.1c22.3,0.5,55.3-17.3,65-36.5c1.4-2.5,0.6-5.1-0.9-7.8
	c-2.7-4.5-8-8.5-11.1-7.9c-0.9,0.2-1.4,1.2-2.5,3c-6.2,10.1-35.4,36.1-48,34.4c-4.5-0.6-3.8-13-2.8-13.4c0.2-0.1,0.5-0.3,1-0.5
	c50.1-16.3,72.2-80.6,39.3-82.5c-5.3-0.3-11.1,2.9-14,7.4c-0.5,0.9-1,1.5-0.3,2.6c0.7,1.1,6.6,5.8,8.1,9.9
	c-5.2-3.2-13.8-7.7-19.9-6.7c-12.1,2.1-22.4,20.8-29.3,39.2c-3.5,9.4-19.4,40-29.1,39.5c-7.8-0.4,18.1-64.1,20.6-68.9
	c0,0,0.9-1.8-0.2-2.8c-6-5.2-17.3-11.1-25.4-4.6c-4.3,3.4-14.2,14-34.9,47.4c-0.1,0.1-0.7,1.3-0.8,1.2c0,0,0-0.1,0-0.2
	c1.4-8.1,9.9-21,10.5-35.6c-0.1-10.5-9.3-14.4-18.5-16.1c-1.7-0.4-3.5,0.1-3.3,2.1c0.9,12.2-3.3,25.5-8.1,38.6
	c-4.1,11.4-11.4,24.7-20.5,32.8c-3.5,3.7-7,6.1-10,6.1c-7.8-0.2,17.3-64.5,19.9-69.3c0,0,0.9-1.8-0.3-2.8
	c-9.2-7.8-19.1-11.5-29.4-0.5c-5.4,5.8-14.6,17.7-29.4,42.5c-0.2,0.3-1.1,2-1.2,1.9c0,0,0-0.1,0-0.2c2.7-12.6,10.7-26,9.6-39.7
	c-0.7-9.1-6.7-13.1-19.3-15.5c-1.8-0.4-3.5,0-3.3,2.1c0.6,10.7-2.3,22.8-5.9,35c-3.7,12.3-20.4,46.5-32.3,46.3
	c-3.5-0.1-2.7-13.2,1.3-28c6.1-10.3,16.3-27.7,17.3-38.4c0.7-7.6-5.9-14-12-17.8c-3.3-2.1-6.9-4.8-10.2-1.2c-2.8,3.1-5,7.2-7.4,12.9
	c-1.5-0.9-3.4-1.9-5.5-2.8c-5.7-2.5-14.1-4.7-20.2-2.8c-21.1,6.4-36.7,60.2-36,77C224,201.8,236.6,210,248,210
	c8.2,0,17.8-7.9,25.5-16.9c1.7,7.7,5.9,13.8,14.6,14.7c9.4,0.9,19.9-7.8,28.6-18.3c-0.4,3.7-0.8,6.7,1.6,9.9
	c3.4,4.4,10.5,8.3,14.4,8.3c1.3,0,3-0.4,4.3-2.1c0.4,0.4,20-41,39.5-59.3c0,0,0.3-0.4,0.5-0.3c0.1,0.1-0.2,0.4-0.6,1.6
	c-5.2,14.2-27.3,57.7,4.4,60.3c8.5,0.1,17.9-7.1,26.1-16C406.8,192.9,406.8,193.9,406.8,195z"/>
</svg>
